<svg width="24" height="24" viewBox="0 0 1000 1000">
<g transform="translate(0.000000,1000.000000) scale(0.100000,-0.100000)" stroke="none">
<path d="M4655 9989 c-649 -61 -1105 -172 -1635 -399 -818 -349 -1566 -953
-2091 -1690 -798 -1119 -1100 -2522 -833 -3870 239 -1208 916 -2283 1910
-3032 382 -288 869 -550 1322 -709 1271 -449 2661 -369 3867 221 369 181 685
386 1015 659 148 122 499 473 621 621 341 413 610 859 798 1323 490 1210 493
2545 9 3752 -191 477 -461 926 -806 1345 -123 148 -474 499 -622 622 -744 614
-1591 991 -2515 1117 -349 48 -778 64 -1040 40z m760 -179 c623 -58 1195 -219
1735 -489 207 -104 322 -171 525 -306 459 -306 837 -662 1174 -1105 763 -1003
1101 -2271 940 -3530 -154 -1204 -762 -2309 -1702 -3093 -440 -368 -958 -661
-1507 -852 -584 -203 -1245 -293 -1870 -255 -1041 64 -1995 444 -2815 1121
-128 105 -486 464 -594 594 -475 574 -806 1220 -981 1917 -351 1400 -67 2872
778 4032 265 363 639 743 997 1012 756 570 1653 901 2611 964 153 10 554 5
709 -10z"/>
<path d="M4760 9694 c-1183 -69 -2252 -546 -3080 -1374 -702 -702 -1153 -1577
-1314 -2550 -47 -286 -59 -441 -59 -770 0 -325 11 -478 58 -765 278 -1714
1496 -3141 3151 -3694 1038 -346 2188 -316 3203 86 1083 428 1964 1236 2485
2280 797 1598 622 3499 -455 4924 -258 342 -590 673 -934 931 -681 511 -1475
820 -2345 913 -141 15 -579 27 -710 19z m740 -68 c1059 -125 1991 -564 2739
-1291 387 -376 672 -766 916 -1250 282 -559 435 -1109 486 -1749 15 -194 7
-674 -16 -856 -130 -1069 -580 -2006 -1321 -2756 -692 -699 -1603 -1168 -2565
-1318 -286 -45 -377 -51 -749 -51 -378 0 -482 8 -790 61 -1195 203 -2284 893
-3000 1899 -721 1013 -1001 2294 -774 3535 147 807 528 1591 1071 2210 414
470 892 837 1453 1114 530 262 1080 413 1690 465 160 14 701 6 860 -13z"/>
<path d="M4945 9350 l-50 -50 53 -53 52 -52 52 52 53 53 -50 50 c-27 27 -52
50 -55 50 -3 0 -28 -23 -55 -50z"/>
<path d="M4402 9312 l-43 -57 33 -28 c18 -16 45 -37 59 -47 l25 -19 43 55 c23
30 41 58 39 63 -3 8 -104 92 -110 91 -2 -1 -22 -27 -46 -58z"/>
<path d="M5495 9329 c-27 -23 -51 -44 -53 -48 -3 -8 76 -111 85 -111 9 0 113
80 113 86 0 8 -84 114 -90 114 -3 -1 -27 -19 -55 -41z"/>
<path d="M3902 9248 c-6 -13 -22 -42 -36 -64 l-26 -42 61 -36 c33 -20 65 -34
69 -31 9 6 70 108 70 118 0 4 -117 77 -124 77 -2 0 -8 -10 -14 -22z"/>
<path d="M6024 9234 c-32 -20 -61 -38 -63 -39 -4 -5 69 -125 76 -125 3 0 32
16 65 36 l59 36 -27 46 c-51 89 -43 86 -110 46z"/>
<path d="M3381 9052 c-13 -31 -25 -62 -28 -68 -4 -11 123 -72 131 -63 5 5 56
120 56 126 0 4 -125 63 -132 63 -2 0 -14 -26 -27 -58z"/>
<path d="M6520 9074 c-30 -14 -56 -27 -57 -28 -2 -2 10 -33 26 -69 l30 -66 58
25 c32 14 62 29 67 34 10 10 -43 130 -58 130 -6 0 -36 -12 -66 -26z"/>
<path d="M4795 8910 c-1341 -70 -2556 -827 -3216 -2005 -691 -1235 -652 -2782
100 -3980 150 -239 316 -449 521 -659 655 -672 1489 -1070 2445 -1167 154 -16
555 -16 710 0 784 79 1489 364 2095 847 173 138 466 431 604 604 483 605 769
1314 847 2095 16 155 16 556 0 710 -49 484 -167 912 -368 1336 -278 584 -724
1113 -1264 1500 -712 509 -1591 764 -2474 719z m465 -50 c352 -27 645 -84 963
-190 1302 -433 2288 -1541 2566 -2881 99 -481 107 -1000 21 -1475 -163 -898
-635 -1707 -1338 -2293 -585 -487 -1299 -787 -2077 -873 -180 -20 -653 -17
-835 6 -637 77 -1205 289 -1735 647 -848 572 -1443 1483 -1630 2493 -47 257
-59 401 -59 706 0 305 12 449 59 706 220 1189 991 2211 2081 2757 460 230 952
362 1494 400 109 8 366 6 490 -3z"/>
<path d="M4934 8541 c-45 -20 -2640 -1525 -2659 -1542 -19 -19 -19 -19 0 -38
11 -10 105 -69 208 -131 160 -95 192 -111 210 -103 15 7 2140 1234 2317 1338
9 6 2418 -1389 2419 -1400 0 -5 -500 -299 -1112 -653 -612 -353 -1123 -650
-1136 -660 -16 -12 -22 -24 -18 -34 3 -9 94 -69 201 -133 141 -85 202 -116
218 -113 13 3 397 221 853 486 457 264 831 479 833 477 2 -2 -452 -793 -1010
-1758 l-1013 -1755 -5 1101 c-5 1026 -6 1102 -22 1105 -9 2 -109 -52 -222
-119 l-206 -123 0 -1209 c0 -1147 -1 -1209 -17 -1202 -10 3 -482 274 -1049
601 -567 327 -1039 594 -1050 593 -10 0 -107 -53 -214 -118 -145 -87 -195
-121 -195 -136 0 -15 290 -186 1330 -786 904 -522 1345 -771 1377 -778 34 -8
59 -7 95 2 30 8 590 326 1483 842 789 455 1454 841 1478 857 26 18 52 48 67
78 l25 49 0 1722 c0 1911 6 1753 -65 1823 -18 17 -457 276 -976 575 -519 300
-1178 680 -1464 845 l-520 301 -70 2 c-38 2 -79 -1 -91 -6z m2736 -3904 l0
-1172 -52 -31 c-193 -114 -1949 -1125 -1963 -1130 -14 -6 -11 3 11 43 276 480
2000 3463 2002 3463 1 0 2 -528 2 -1173z"/>
<path d="M2035 6884 c-80 -48 -117 -84 -111 -107 3 -12 0 -17 -8 -14 -9 4 -17
-8 -25 -32 -16 -55 -16 -3408 0 -3462 15 -47 67 -112 85 -105 8 3 13 0 11 -6
-3 -15 104 -79 125 -74 9 2 129 69 265 149 136 80 869 504 1628 942 759 438
1383 802 1387 808 4 7 6 16 5 22 -2 5 -77 54 -168 109 -219 132 -3117 1806
-3127 1806 -4 0 -34 -16 -67 -36z m1400 -1246 c602 -348 1095 -635 1095 -638
0 -6 -2185 -1270 -2195 -1270 -3 0 -5 572 -5 1270 0 699 2 1270 5 1270 3 0
498 -284 1100 -632z"/>
<path d="M2925 8877 c-2 -7 -10 -34 -19 -61 -9 -27 -16 -55 -16 -61 0 -7 31
-21 69 -32 l68 -20 22 69 c13 38 21 71 19 73 -1 1 -34 12 -71 23 -49 15 -69
17 -72 9z"/>
<path d="M7000 8868 c-36 -11 -66 -21 -68 -23 -2 -2 6 -34 18 -73 l21 -70 67
20 c37 11 69 22 71 24 3 3 -38 145 -42 143 -1 0 -31 -10 -67 -21z"/>
<path d="M2470 8548 c-7 -38 -10 -72 -7 -75 3 -3 35 -11 72 -18 63 -12 66 -11
70 9 10 43 23 121 21 124 -2 1 -35 9 -74 16 l-71 13 -11 -69z"/>
<path d="M7421 8599 c-24 -5 -45 -10 -46 -11 -5 -5 20 -140 25 -140 29 0 120
16 130 22 10 6 10 20 0 74 -14 74 -14 74 -109 55z"/>
<path d="M2070 8215 l0 -75 75 0 75 0 0 75 0 75 -75 0 -75 0 0 -75z"/>
<path d="M7793 8283 c-8 -3 -13 -25 -13 -58 0 -83 2 -85 81 -85 l69 0 0 75 0
75 -62 -1 c-35 0 -69 -3 -75 -6z"/>
<path d="M1710 7871 c0 -90 1 -91 81 -91 l69 0 0 75 0 75 -75 0 -75 0 0 -59z"/>
<path d="M8144 7916 c-3 -7 -4 -40 -2 -72 l3 -59 73 -3 72 -3 0 76 0 75 -70 0
c-50 0 -72 -4 -76 -14z"/>
<path d="M1443 7527 c-60 -11 -62 -16 -42 -107 10 -46 14 -51 33 -47 11 3 43
9 70 13 l48 7 -6 59 c-11 97 -7 94 -103 75z"/>
<path d="M8464 7516 c-3 -13 -6 -45 -7 -72 l-2 -48 65 -12 c36 -6 66 -11 68
-9 1 1 9 34 16 73 l13 70 -62 11 c-83 15 -84 15 -91 -13z"/>
<path d="M1170 7090 c-43 -14 -54 -22 -52 -36 3 -21 33 -117 38 -122 1 -2 33
6 71 19 l69 22 -20 68 c-22 77 -21 77 -106 49z"/>
<path d="M8724 7040 l-21 -69 67 -20 c83 -26 77 -26 84 2 3 12 12 43 20 69
l15 48 -66 20 c-36 11 -68 20 -72 20 -3 0 -15 -31 -27 -70z"/>
<path d="M963 6622 c-35 -14 -63 -31 -63 -38 0 -20 49 -124 59 -124 4 0 36 12
69 28 l61 27 -28 62 c-15 35 -29 65 -32 67 -2 2 -32 -8 -66 -22z"/>
<path d="M8953 6613 c-8 -21 -22 -51 -30 -66 l-14 -28 65 -29 c36 -17 68 -30
70 -30 7 0 56 110 56 125 0 10 -107 65 -126 65 -3 0 -12 -17 -21 -37z"/>
<path d="M793 6121 l-62 -37 36 -60 c19 -32 37 -61 38 -63 5 -4 113 58 120 70
5 7 -61 130 -68 129 -1 -1 -30 -18 -64 -39z"/>
<path d="M9106 6099 c-20 -33 -36 -62 -36 -64 0 -4 116 -75 123 -75 2 0 21 28
41 62 29 47 34 63 24 70 -7 4 -36 21 -64 38 l-52 30 -36 -61z"/>
<path d="M9172 5604 l-41 -57 56 -44 c64 -49 64 -49 121 30 l31 44 -50 37
c-27 20 -55 39 -62 42 -7 2 -31 -21 -55 -52z"/>
<path d="M686 5597 l-56 -44 43 -56 c23 -31 45 -57 49 -57 5 0 32 19 62 42
l54 42 -30 43 c-57 79 -57 79 -122 30z"/>
<path d="M645 5050 l-50 -50 53 -53 52 -52 52 52 53 53 -50 50 c-27 27 -52 50
-55 50 -3 0 -28 -23 -55 -50z"/>
<path d="M9245 5050 l-50 -50 53 -53 52 -52 52 52 53 53 -50 50 c-27 27 -52
50 -55 50 -3 0 -28 -23 -55 -50z"/>
<path d="M673 4503 l-43 -56 56 -43 c31 -24 58 -44 60 -44 2 0 24 26 48 57
l45 57 -56 43 c-30 24 -58 43 -62 43 -3 0 -25 -26 -48 -57z"/>
<path d="M9223 4519 c-29 -22 -53 -44 -53 -48 0 -10 79 -111 87 -111 5 0 71
50 107 81 7 6 -66 110 -83 116 -3 2 -30 -15 -58 -38z"/>
<path d="M768 3978 c-41 -70 -45 -60 44 -111 l47 -27 35 59 c20 32 36 61 36
64 0 5 -113 77 -122 77 -2 0 -20 -28 -40 -62z"/>
<path d="M9132 4006 c-29 -18 -55 -35 -58 -38 -5 -5 63 -128 71 -128 2 0 31
16 64 36 l61 36 -35 61 c-19 34 -38 63 -42 64 -4 1 -32 -13 -61 -31z"/>
<path d="M933 3503 c-8 -21 -22 -50 -29 -65 l-14 -28 66 -30 c37 -17 69 -28
72 -25 3 3 18 33 33 68 l28 62 -61 27 c-33 16 -65 28 -70 28 -5 0 -16 -17 -25
-37z"/>
<path d="M8985 3514 c-27 -13 -54 -25 -60 -27 -10 -4 28 -111 46 -131 6 -7
116 32 137 49 5 4 -59 135 -66 134 -4 0 -29 -11 -57 -25z"/>
<path d="M1135 3008 c-9 -35 -16 -67 -16 -72 0 -9 102 -46 126 -46 6 0 20 31
31 69 l20 68 -55 17 c-31 10 -63 19 -72 22 -13 4 -20 -9 -34 -58z"/>
<path d="M8764 3047 l-61 -22 21 -65 c11 -36 22 -67 23 -69 2 -3 35 5 73 17
l69 23 -15 47 c-8 26 -17 57 -20 70 -7 27 -12 26 -90 -1z"/>
<path d="M1407 2608 c-3 -13 -9 -46 -13 -74 -7 -58 -10 -55 88 -69 52 -8 46
-16 66 87 10 53 12 51 -63 63 -22 4 -47 9 -56 11 -11 3 -19 -3 -22 -18z"/>
<path d="M8516 2616 c-33 -6 -61 -17 -63 -23 -4 -12 14 -123 21 -131 3 -2 37
1 76 8 58 10 70 15 66 28 -3 10 -8 35 -11 57 -9 56 -15 75 -23 74 -4 -1 -34
-7 -66 -13z"/>
<path d="M1717 2213 c-4 -3 -7 -37 -7 -75 l0 -68 75 0 75 0 0 75 0 75 -68 0
c-38 0 -72 -3 -75 -7z"/>
<path d="M8153 2213 c-9 -3 -13 -28 -13 -74 l0 -69 75 0 75 0 0 75 0 75 -62
-1 c-35 0 -69 -3 -75 -6z"/>
<path d="M2070 1785 l0 -75 75 0 75 0 0 75 0 75 -75 0 -75 0 0 -75z"/>
<path d="M7785 1837 c-4 -13 -5 -46 -3 -73 l3 -49 73 -3 72 -3 0 76 0 75 -70
0 c-64 0 -70 -2 -75 -23z"/>
<path d="M7395 1536 c-15 -74 -23 -121 -21 -123 1 -2 34 -9 74 -16 l71 -14 11
69 c7 38 10 72 7 75 -3 3 -35 11 -72 18 -63 12 -66 11 -70 -9z"/>
<path d="M2511 1539 c-24 -5 -46 -10 -48 -12 -2 -3 2 -36 8 -76 10 -58 15 -71
28 -67 9 3 37 8 62 11 69 10 70 11 56 88 -12 75 -12 75 -106 56z"/>
<path d="M2955 1274 c-27 -9 -53 -19 -57 -23 -4 -3 2 -37 13 -75 15 -51 24
-66 35 -62 8 3 39 13 69 22 30 8 55 18 55 22 -1 30 -39 127 -51 129 -8 1 -36
-5 -64 -13z"/>
<path d="M6950 1223 c-11 -36 -19 -67 -18 -68 7 -7 134 -42 139 -39 7 4 43
134 38 137 -8 6 -116 37 -127 37 -6 0 -20 -30 -32 -67z"/>
<path d="M3410 1053 c-30 -13 -56 -26 -58 -28 -3 -3 46 -126 53 -133 3 -3 121
45 134 54 7 6 -54 134 -64 133 -5 0 -35 -12 -65 -26z"/>
<path d="M6486 1018 c-15 -33 -23 -64 -19 -68 4 -4 34 -19 66 -33 l58 -26 30
65 c16 36 29 67 29 69 0 6 -112 55 -125 55 -7 0 -24 -28 -39 -62z"/>
<path d="M3903 891 l-62 -37 36 -60 c19 -32 36 -60 38 -62 4 -5 114 58 121 69
4 7 -62 130 -69 129 -1 -1 -30 -18 -64 -39z"/>
<path d="M5996 871 c-20 -32 -36 -61 -36 -64 0 -2 28 -21 62 -41 47 -29 63
-34 70 -24 4 7 21 36 38 64 l30 52 -61 36 c-33 20 -62 36 -64 36 -2 0 -20 -26
-39 -59z"/>
<path d="M4417 793 c-34 -26 -54 -49 -51 -56 4 -7 23 -32 42 -57 20 -25 37
-47 38 -48 3 -5 108 78 112 87 1 5 -17 33 -41 64 l-43 56 -57 -46z"/>
<path d="M5480 774 c-23 -31 -38 -59 -34 -63 35 -30 102 -81 106 -81 7 0 88
104 88 113 0 7 -101 87 -110 87 -4 0 -27 -25 -50 -56z"/>
<path d="M4945 750 l-50 -50 53 -53 52 -52 52 52 53 53 -50 50 c-27 27 -52 50
-55 50 -3 0 -28 -23 -55 -50z"/>
</g>
</svg>
