<svg fill="#fff" width="45" height="29" viewBox="0 0 45 29" xmlns="http://www.w3.org/2000/svg">
<g transform="translate(0.000000,1024.000000) scale(0.100000,-0.100000)"
fill="#000000" stroke="none">
<path d="M2428 9300 c-85 -10 -204 -35 -289 -60 -102 -31 -152 -99 -134 -182
6 -26 85 -112 359 -388 403 -406 401 -403 401 -540 0 -130 -13 -150 -244 -381
-231 -231 -251 -244 -381 -244 -70 0 -93 4 -130 24 -29 15 -168 146 -395 371
-192 192 -363 354 -378 359 -60 23 -118 8 -164 -41 -26 -27 -68 -167 -88 -291
-67 -412 19 -822 243 -1167 221 -340 545 -579 944 -694 262 -76 593 -76 878 0
l94 25 388 -388 388 -388 -66 -3 c-78 -3 -171 -32 -234 -72 -25 -16 -622 -607
-1327 -1312 -1363 -1365 -1315 -1313 -1349 -1443 -19 -68 -17 -200 2 -266 37
-126 47 -137 597 -686 547 -546 551 -550 676 -587 70 -21 202 -21 272 0 130
39 84 -4 1437 1347 705 705 1296 1302 1312 1327 40 63 69 156 72 234 l3 66
388 -388 389 -389 -20 -69 c-43 -143 -53 -219 -59 -404 -4 -143 -2 -210 11
-298 80 -546 430 -1017 929 -1252 305 -143 638 -189 975 -135 123 20 263 62
290 88 49 46 64 104 41 164 -5 15 -167 186 -359 378 -225 227 -356 366 -371
395 -20 37 -24 60 -24 130 0 130 12 149 249 386 182 182 207 203 261 223 47
18 76 22 130 19 122 -6 132 -13 525 -404 373 -370 379 -375 451 -359 55 12 96
59 120 137 83 279 90 594 19 874 -72 286 -205 525 -410 738 -251 260 -561 426
-908 487 -226 39 -517 25 -731 -38 l-85 -24 -588 588 -588 588 1044 1044 1045
1045 238 -17 238 -16 44 22 c44 22 49 31 397 657 324 583 353 639 354 683 0
26 -6 60 -14 75 -18 32 -422 435 -453 451 -12 6 -42 11 -67 11 -41 0 -107 -34
-683 -353 -630 -349 -638 -354 -660 -398 l-22 -44 16 -238 17 -238 -1045
-1045 -1044 -1044 -588 588 -588 588 24 85 c87 298 80 656 -19 960 -147 456
-514 847 -959 1023 -246 97 -539 136 -797 106z m452 -305 c266 -59 481 -172
671 -353 207 -196 339 -437 400 -725 17 -79 22 -137 22 -257 1 -177 -15 -274
-69 -436 -37 -112 -42 -160 -20 -202 8 -15 296 -308 640 -652 l626 -625 -131
-131 -131 -131 -66 34 c-172 88 -386 59 -529 -72 l-48 -44 -500 500 -500 499
-49 0 c-28 0 -86 -13 -135 -29 -272 -93 -561 -100 -834 -20 -409 121 -753 447
-895 850 -62 177 -90 372 -77 545 l7 96 267 -265 c242 -240 273 -268 341 -301
193 -94 421 -84 591 25 88 56 436 403 500 497 70 106 94 188 94 332 0 138 -22
222 -86 320 -26 40 -134 159 -286 312 -235 236 -244 247 -217 251 59 11 340
-2 414 -18z m5993 -123 l117 -118 -285 -514 c-157 -283 -291 -519 -298 -524
-7 -4 -104 -2 -221 7 -141 10 -221 11 -245 5 -29 -8 -276 -250 -1348 -1321
l-1313 -1312 -92 93 -93 92 1312 1313 c1080 1081 1313 1318 1321 1348 7 25 5
103 -5 245 -8 116 -11 214 -6 221 6 11 1015 578 1033 582 3 1 58 -52 123 -117z
m-4189 -3612 c56 -27 560 -532 581 -582 35 -86 11 -148 -105 -263 l-80 -80
-372 373 -373 372 80 80 c118 119 182 143 269 100z m2343 -1379 c37 -18 95
-12 181 19 146 53 268 73 447 73 127 1 181 -4 262 -21 629 -135 1072 -649
1100 -1278 3 -66 2 -146 -1 -178 l-8 -58 -246 245 c-147 145 -272 261 -309
284 -99 64 -187 88 -323 88 -138 0 -222 -22 -320 -86 -77 -49 -422 -387 -485
-474 -133 -185 -151 -416 -49 -625 33 -68 61 -99 301 -341 l265 -267 -97 -7
c-174 -13 -365 14 -544 77 -403 142 -729 486 -850 895 -80 272 -73 563 20 834
16 49 29 107 29 135 l0 49 -499 500 -500 500 45 50 c131 146 159 356 71 525
l-34 65 131 133 131 132 630 -629 c346 -346 640 -634 652 -640z m-3076 1134
c37 -13 126 -98 547 -518 479 -479 503 -504 518 -555 13 -44 14 -62 4 -105
-12 -52 -24 -63 -1274 -1316 -874 -875 -1273 -1269 -1301 -1282 -49 -23 -123
-24 -173 -4 -48 20 -1004 972 -1034 1030 -27 53 -27 127 0 180 13 25 497 516
1284 1301 1110 1109 1268 1263 1303 1272 58 14 77 14 126 -3z"/>
</g>
</svg>
